<?xml version="1.0" encoding="UTF-8"?>
<svg id="Capa_1" data-name="Capa 1" xmlns="http://www.w3.org/2000/svg" viewBox="0 0 1084.23 1102.3">
  <defs>
    <style>
      .cls-1 {
        fill: #1a2d4f;
      }
    </style>
  </defs>
  <path class="cls-1" d="M521.18,231.6l-125.63,211.22c-1.6,2.69-1.6,6.01,0,8.71l19.9,33.53c1.73,2.91,6.05,2.91,7.78,0l125.66-211.3c1.6-2.69,1.6-6.02,0-8.72l-19.94-33.45c-1.73-2.91-6.04-2.9-7.77,0"/>
  <path class="cls-1" d="M654.55,442.72l-19.94-33.45c-1.73-2.91-6.05-2.9-7.77,0l-97.91,164.62c-1.73,2.9-6.04,2.9-7.78,0l-19.95-33.53c-1.61-2.7-1.61-6.02,0-8.72l100.52-169.01c1.61-2.7,1.61-6.03,0-8.73l-19.94-33.45c-1.73-2.91-6.05-2.91-7.77,0l-125.62,211.21c-1.61,2.69-1.61,6.02,0,8.72l72.77,122.28c1.74,2.9,6.05,2.9,7.78,0l125.62-211.2c1.6-2.7,1.6-6.02,0-8.72"/>
  <g>
    <path class="cls-1" d="M875.18,718.65l-49.6,55.91c-2.68,3.03-7.52,3.03-10.2,0l-49.6-55.91c-.85-.96-2.09-1.51-3.39-1.51h-24.61c-.96,0-1.47,1.11-.83,1.8l61.14,66.78c5.69,6.21,13.83,9.76,22.39,9.76s16.7-3.56,22.38-9.76l61.15-66.78c.64-.7.13-1.8-.84-1.8h-24.6c-1.3,0-2.54.55-3.39,1.51"/>
    <path class="cls-1" d="M418.87,768.31c-.9,1.27-2.83,1.27-3.73,0l-35.91-50.7c-.21-.3-.55-.47-.92-.47h-29.67c-.62,0-1.12.49-1.12,1.09v73.99c0,.6.5,1.09,1.12,1.09h20.17c.62,0,1.12-.49,1.12-1.09v-54.37c0-.52.7-.73,1-.3l28.51,40.26c4.75,6.72,13.22,10.2,21.73,8.58,5.58-1.07,10.44-4.4,13.66-8.96l28.24-39.88c.3-.43,1-.22,1,.3v54.37c0,.6.5,1.09,1.12,1.09h20.18c.62,0,1.12-.49,1.12-1.09v-73.99c0-.6-.5-1.09-1.12-1.09h-29.67c-.36,0-.71.18-.92.47l-35.9,50.7Z"/>
    <path class="cls-1" d="M261.21,717.14c-.62,0-1.12.48-1.12,1.09v20.67c0,18.03-12.81,36.99-31.38,36.99h-81.59c-.74,0-1.34.59-1.34,1.3v14.8c0,.72.6,1.3,1.34,1.3h81.59c30.95,0,56.04-24.35,56.04-54.4v-20.67c0-.6-.5-1.09-1.12-1.09h-22.42Z"/>
    <path class="cls-1" d="M688.23,720.98v2.79c0,5.22-4.23,9.45-9.45,9.45h-116.24c-5.22,0-9.45-4.23-9.45-9.45v-2.79c0-2.01,1.62-3.64,3.64-3.64h127.87c2.01,0,3.64,1.63,3.64,3.64"/>
    <path class="cls-1" d="M678.19,762.93c5.54,0,10.04-4.36,10.04-9.74v-2.38c0-2.07-1.73-3.75-3.86-3.75h-127.42c-2.13,0-3.86,1.68-3.86,3.75v38.74c0,2.07,1.73,3.75,3.86,3.75h121.24c5.54,0,10.04-4.36,10.04-9.74v-2.38c0-2.07-1.73-3.75-3.86-3.75h-104.28c-1.28,0-2.32-1-2.32-2.24v-8.76c0-1.24,1.04-3.49,2.32-3.49h98.1Z"/>
  </g>
</svg>