<?xml version="1.0" encoding="UTF-8"?>
<svg id="Capa_1" data-name="Capa 1" xmlns="http://www.w3.org/2000/svg" viewBox="0 0 1920 1080">
  <g>
    <path d="M286.42,904.3l2.16-152.6c-25.71,25.31-46.06,59.58-70.91,85.04-9.7,9.94-16.45,11.86-30.74,6.68l-75.14-89.54c-1.98,11.39,1.89,23.06,2.25,33.7,1.04,30.33,3.4,80.49.02,109.2-.37,3.17-.27,5.6-3.39,7.52h-36.02v-213.64h36.02l89.51,108.96,87.32-108.96h34.93l3.27,3.27v207.1l-3.27,3.27h-36.02Z"/>
    <polygon points="1324.47 424.69 1413.95 531.54 1498.03 424.69 1535.14 424.69 1535.14 633.98 1498.03 633.98 1500.19 485.74 1425.05 575.27 1402.02 576.16 1325.58 485.74 1327.75 633.98 1288.45 633.98 1288.45 427.96 1291.72 424.69 1324.47 424.69"/>
    <path d="M589.38,689.08c67.81-7.65,150.95,22.55,155.56,100.68,7.63,129.42-198.17,157.6-250.85,52.14-35.65-71.36,22.19-144.57,95.3-152.82ZM598.15,726.18c-54.12,5.86-98.56,60.05-60.62,109.39,51.16,66.55,195.03,27.24,162.54-62.04-14.23-39.12-64.44-51.41-101.92-47.36Z"/>
    <path d="M1307.61,689.08c68.93-7.77,152.34,23.4,155.58,102.84,4.99,122.37-183.81,153.92-245.09,59.46-46.64-71.89,11.43-153.5,89.51-162.3ZM1260.84,842.49c55.6,56.31,188.97,17.35,157.46-68.95-20.94-57.36-123.71-63.51-160.36-18.52-21.32,26.17-21.06,63.2,2.9,87.47Z"/>
    <path d="M1754.54,690.66c77.73,8.21,87.47,105.49,16.39,131.87l58.92,81.77h-44.75l-58.94-76.3h-64.4v73.03l-3.27,3.27h-36.02v-213.64c42.13,3.25,90.72-4.37,132.08,0ZM1661.76,793.12h81.87c8.29,0,26.23-12.39,30.39-19.8,5.78-10.32,4.82-24.72-3.08-33.64-2.57-2.9-17.75-11.97-20.76-11.97h-88.41v65.4Z"/>
    <path d="M1691.83,423.12c66.34-7.48,146.2,21.49,153.03,96.67,10.22,112.47-146.43,150.72-221.37,85.91-75.76-65.52-23.98-172.17,68.34-182.57ZM1698.38,460.18c-53.54,6.09-93.93,59.83-57.18,108.21,48.87,64.33,194.74,24.23,159.16-63.02-16.1-39.48-63.48-49.57-101.98-45.19Z"/>
    <path d="M1156.37,424.69c76.07,8.03,85.48,103.28,16.33,129.75l58.99,79.53h-46.94l-56.76-74.12h-64.4v74.12h-37.11v-209.28c41.44,3.2,89.21-4.29,129.89,0ZM1063.59,524.98h84.05c21.12,0,41.76-31.86,25.16-51.28-3.57-4.18-22.38-14.12-27.34-14.12h-81.87v65.4Z"/>
    <polygon points="965.35 459.57 826.73 459.57 823.45 462.84 823.45 509.72 946.8 509.72 950.07 512.99 950.07 544.6 823.45 544.6 823.45 599.1 965.35 599.1 965.35 633.98 786.34 633.98 786.34 424.69 962.08 424.69 965.35 427.96 965.35 459.57"/>
    <path d="M111.77,633.98h-37.11v-209.28h132.08c5.21,0,20.41,6.31,25.89,9.03,49.19,24.46,46.38,91.23-.11,116.99-4.18,2.31-20.03,9.14-23.59,9.14h-93.87l-3.27,3.27v70.85ZM111.77,524.98h81.87c17.32,0,38.05-22.95,32.4-41.06-2.58-8.27-20.13-22.16-28.04-22.16h-86.23v63.22Z"/>
    <path d="M275.5,633.98l101.48-207.13,39.41-2.31,103.61,209.44h-41.48l-19.42-42.25-121.04-1-24.36,43.25h-38.2ZM439.23,555.5l-43.64-89.38-41.5,89.38h85.14Z"/>
    <polygon points="1076.69 690.66 1076.69 727.72 991.55 727.72 991.55 904.3 955.53 904.3 952.26 901.03 952.26 727.72 871.48 727.72 871.48 690.66 1076.69 690.66"/>
    <polygon points="598.6 424.69 598.6 599.1 738.31 599.1 738.31 633.98 559.3 633.98 559.3 424.69 598.6 424.69"/>
  </g>
  <path d="M1887.81,357.14l-60.39,45.4c-36.5-19.42-75.95-33.23-116.41-42.17-60.12-13.3-129.49-18.61-191.13-16.42-4.8.17-57.8,6.75-57.78,3.36,139.97-31.68,286.45-19.54,425.72,9.83Z"/>
  <path d="M1726.26,300.41c-10.53,1.65-21.3,12.58-31.69,13.26-13.34.87-35.78-4.19-50.08-4.6-169.08-4.8-348.89,22.64-519.75,28.34-68.93,2.3-138.5,4.47-207.32,6.61-38.98,1.21-77.78,1.74-116.76,2.18l45.05-10.57c146.89-18.45,295.5-21.25,442.84-35.21,43.16-4.09,88.28-8.29,129.91-20.7,6.34-1.89,37.14-10.85,37.08-17.44-61.82-31.02-134.38-47.44-202.53-59.31-167.43-29.17-333.36-42.88-497.69,7.5-104.18,31.94-199.15,89.72-307.54,104.91-29.94,4.2-60.38,4.66-90.27,9.06l71.96,22.93,48.08,24.98c-31.94-12.12-65.66-21.02-99.63-25.83-112.52-15.94-235.22-6.25-343.48,26.96,44.83-30.46,101.61-43.16,154.55-52.75,83.15-15.06,166.56-16.49,250.35-24.68,108.51-10.61,218.94-78.74,324.21-110.07,252.86-75.26,584.97-30.58,830.7,57.72,40.88,14.69,88.23,32.51,126.65,52.29,2.04,1.05,5.19,1.31,5.38,4.4Z"/>
</svg>